<?xml version="1.0" standalone="no"?>
<!DOCTYPE svg PUBLIC "-//W3C//DTD SVG 20010904//EN"
 "http://www.w3.org/TR/2001/REC-SVG-20010904/DTD/svg10.dtd">
<svg version="1.0" xmlns="http://www.w3.org/2000/svg"
 width="512.000000pt" height="512.000000pt" viewBox="0 0 512.000000 512.000000"
 preserveAspectRatio="xMidYMid meet">

<g transform="translate(0.000000,512.000000) scale(0.100000,-0.100000)"
fill="#1FFFF2" stroke="none">
<path d="M2015 4279 c-506 -63 -945 -428 -1104 -918 -60 -183 -79 -445 -46
-637 73 -415 340 -774 718 -964 204 -103 377 -144 607 -143 308 1 593 101 828
291 l44 35 546 -546 c324 -324 559 -551 577 -557 72 -27 145 25 145 103 l0 42
-557 557 -557 557 24 33 c98 132 184 302 225 443 149 517 -22 1072 -435 1408
-288 234 -655 341 -1015 296z m338 -224 c565 -85 973 -588 944 -1165 -36 -709
-734 -1209 -1415 -1014 -484 138 -814 574 -814 1074 0 429 239 814 623 1003
209 103 430 137 662 102z"/>
</g>
</svg>
