<?xml version="1.0" standalone="no"?>
<!DOCTYPE svg PUBLIC "-//W3C//DTD SVG 20010904//EN"
 "http://www.w3.org/TR/2001/REC-SVG-20010904/DTD/svg10.dtd">
<svg version="1.0" xmlns="http://www.w3.org/2000/svg"
 width="512.000000pt" height="512.000000pt" viewBox="0 0 512.000000 512.000000"
 preserveAspectRatio="xMidYMid meet">

<g transform="translate(0.000000,512.000000) scale(0.100000,-0.100000)"
fill="white" stroke="none">
<path d="M2297 4785 c-423 -51 -846 -232 -1162 -497 -114 -95 -282 -269 -361
-374 -294 -391 -454 -870 -454 -1358 0 -781 422 -1521 1095 -1919 691 -409
1533 -420 2238 -30 l100 56 433 -173 c476 -190 467 -188 545 -135 45 32 69 78
69 133 0 23 -61 237 -144 508 l-144 467 48 96 c206 412 282 876 214 1325 -166
1108 -1114 1924 -2229 1915 -77 -1 -189 -7 -248 -14z m628 -319 c373 -79 688
-245 954 -501 177 -172 289 -321 391 -524 93 -186 149 -360 187 -576 26 -150
23 -471 -5 -625 -39 -217 -128 -463 -226 -630 -21 -36 -41 -83 -43 -105 -4
-31 19 -120 101 -392 58 -194 106 -354 106 -356 0 -3 -140 52 -312 120 -357
144 -364 145 -460 81 -233 -154 -510 -261 -791 -305 -152 -23 -424 -23 -571 1
-961 157 -1645 954 -1646 1918 0 746 433 1427 1111 1747 173 82 383 144 579
171 36 5 164 7 285 5 189 -3 237 -7 340 -29z"/>
<path d="M1365 2871 c-92 -24 -173 -90 -215 -176 -34 -69 -35 -198 -2 -265 34
-71 75 -114 144 -151 58 -31 70 -34 148 -33 72 0 93 4 136 26 75 40 107 70
145 140 31 58 34 70 34 148 0 78 -3 90 -34 148 -57 104 -144 160 -260 167 -36
2 -79 1 -96 -4z"/>
<path d="M2485 2871 c-92 -24 -173 -90 -215 -176 -34 -69 -35 -198 -2 -265 34
-71 75 -114 144 -151 58 -31 70 -34 148 -33 72 0 93 4 136 26 75 40 107 70
145 140 31 58 34 70 34 148 0 78 -3 90 -34 148 -57 104 -144 160 -260 167 -36
2 -79 1 -96 -4z"/>
<path d="M3605 2871 c-92 -24 -173 -90 -215 -176 -34 -69 -35 -198 -2 -265 34
-71 75 -114 144 -151 58 -31 70 -34 148 -33 72 0 93 4 136 26 75 40 107 70
145 140 31 58 34 70 34 148 0 78 -3 90 -34 148 -57 104 -144 160 -260 167 -36
2 -79 1 -96 -4z"/>
</g>
</svg>
