<?xml version="1.0" standalone="no"?>
<!DOCTYPE svg PUBLIC "-//W3C//DTD SVG 20010904//EN"
 "http://www.w3.org/TR/2001/REC-SVG-20010904/DTD/svg10.dtd">
<svg version="1.0" xmlns="http://www.w3.org/2000/svg"
 width="512.000000pt" height="512.000000pt" viewBox="0 0 512.000000 512.000000"
 preserveAspectRatio="xMidYMid meet">

<g transform="translate(0.000000,512.000000) scale(0.100000,-0.100000)"
fill="#1FFFF2" stroke="none">
<path d="M1019 4140 c-42 -22 -175 -166 -264 -285 -373 -497 -513 -1109 -394
-1715 78 -391 252 -731 536 -1047 117 -129 186 -158 271 -114 55 29 86 82 86
147 0 61 5 54 -132 206 -279 308 -448 705 -470 1106 -29 513 132 977 470 1350
138 154 133 145 133 212 0 66 -18 99 -75 138 -41 28 -111 29 -161 2z"/>
<path d="M3954 4131 c-42 -26 -72 -66 -80 -108 -12 -62 11 -109 99 -202 139
-147 248 -305 331 -481 324 -689 192 -1491 -336 -2046 -114 -120 -130 -175
-78 -262 22 -37 86 -72 130 -72 54 0 93 25 186 122 330 342 536 793 584 1277
60 607 -158 1237 -578 1673 -48 50 -99 96 -114 104 -38 20 -107 17 -144 -5z"/>
<path d="M3205 3666 c-56 -25 -88 -70 -93 -129 -5 -68 5 -88 106 -201 348
-388 397 -938 126 -1387 -26 -42 -87 -121 -135 -176 -95 -104 -106 -129 -96
-206 4 -32 15 -51 45 -79 81 -75 162 -62 262 41 294 302 451 742 412 1154 -32
339 -160 629 -393 889 -89 101 -158 128 -234 94z"/>
<path d="M1774 3656 c-17 -8 -61 -47 -98 -88 -189 -209 -307 -441 -368 -722
-31 -145 -31 -427 0 -572 61 -281 179 -513 367 -721 71 -78 125 -113 175 -113
71 0 143 58 156 125 12 65 -3 102 -73 178 -92 100 -146 176 -202 287 -228 445
-153 957 197 1342 67 74 77 97 70 163 -12 105 -123 165 -224 121z"/>
<path d="M2460 2864 c-227 -82 -293 -362 -125 -529 66 -66 125 -90 225 -89 72
0 93 4 136 26 75 39 107 70 145 140 30 57 33 71 34 148 0 100 -24 159 -90 225
-82 82 -222 116 -325 79z"/>
</g>
</svg>
