<?xml version="1.0" standalone="no"?>
<!DOCTYPE svg PUBLIC "-//W3C//DTD SVG 20010904//EN"
 "http://www.w3.org/TR/2001/REC-SVG-20010904/DTD/svg10.dtd">
<svg version="1.0" xmlns="http://www.w3.org/2000/svg"
 width="512.000000pt" height="512.000000pt" viewBox="0 0 512.000000 512.000000"
 preserveAspectRatio="xMidYMid meet">

<g transform="translate(0.000000,512.000000) scale(0.100000,-0.100000)"
fill="#000000" stroke="none">
<path d="M645 4470 c-108 -22 -225 -89 -296 -168 -63 -70 -117 -191 -129 -287
-7 -53 -10 -519 -8 -1400 3 -1250 4 -1323 22 -1375 60 -182 185 -306 366 -366
52 -18 120 -19 1110 -22 754 -2 1066 0 1093 8 41 12 77 58 77 98 0 32 -26 79
-53 94 -17 10 -249 14 -1097 18 l-1075 5 -50 27 c-94 50 -161 143 -172 239
l-6 49 1142 0 1143 0 29 29 c50 51 36 137 -28 170 -16 8 -339 11 -1152 11
l-1131 0 0 1205 c0 1192 0 1205 21 1259 26 70 92 139 167 174 l57 27 1770 0
c1691 0 1772 -1 1823 -18 70 -25 152 -101 183 -169 l24 -53 5 -670 c5 -618 6
-673 23 -698 33 -51 120 -52 165 -1 l23 26 -3 691 c-3 686 -3 692 -25 750 -58
154 -179 273 -334 329 l-64 23 -1790 1 c-984 1 -1808 -2 -1830 -6z"/>
<path d="M1892 3699 c-48 -14 -106 -77 -121 -130 -9 -33 -11 -209 -9 -716 l3
-671 30 -43 c43 -61 105 -92 177 -87 63 5 -6 -33 753 406 242 139 451 263 463
275 39 36 62 92 62 147 0 55 -23 111 -62 147 -19 18 -398 239 -1031 603 -137
78 -190 92 -265 69z m661 -544 c257 -148 467 -272 467 -275 0 -4 -672 -396
-992 -578 l-58 -33 0 611 0 611 58 -33 c32 -18 268 -154 525 -303z"/>
<path d="M3820 2434 c-223 -47 -428 -181 -556 -361 -127 -176 -190 -419 -164
-627 26 -214 127 -416 276 -555 81 -76 134 -113 236 -161 137 -65 220 -83 388
-83 176 0 256 18 405 93 221 110 374 287 454 526 152 453 -84 951 -535 1126
-42 16 -110 36 -151 44 -93 18 -267 17 -353 -2z m318 -210 c235 -47 435 -223
515 -453 39 -111 48 -260 23 -373 -57 -254 -261 -464 -511 -524 -89 -21 -240
-22 -327 -1 -253 61 -457 269 -513 523 -24 107 -17 261 18 369 106 327 455
528 795 459z"/>
<path d="M3955 2014 c-37 -19 -291 -269 -311 -306 -50 -94 45 -195 139 -147
12 6 41 30 65 52 l42 41 0 -242 c0 -260 5 -293 51 -326 30 -21 88 -21 118 0
46 33 51 66 51 326 l0 242 43 -41 c53 -51 76 -63 122 -63 75 0 119 85 81 158
-21 40 -287 299 -319 311 -37 14 -46 14 -82 -5z"/>
</g>
</svg>
